<svg width="24px" height="24px" viewBox="0 0 24 24" version="1.1" xmlns="http://www.w3.org/2000/svg"
    xlink="http://www.w3.org/1999/xlink">
    <title>WhiteClose</title>
    <g id="ProductRecommendationPage" stroke="none" strokeWidth="1" fill="none" fillRule="evenodd">
        <g id="ProductRecommendation_Cart" transform="translate(-1840.000000, -56.000000)"
            fill="#FFFFFF" fillRule="nonzero">
            <g id="Group-16" transform="translate(1820.000000, 36.000000)">
                <path
                    d="M35.108,27.2 L32,30.308 L28.892,27.2 L27.2,28.892 L30.308,32 L27.2,35.108 L28.892,36.8 L32,33.692 L35.108,36.8 L36.8,35.108 L33.692,32 L36.8,28.892 L35.108,27.2 Z M32,20 C25.364,20 20,25.364 20,32 C20,38.636 25.364,44 32,44 C38.636,44 44,38.636 44,32 C44,25.364 38.636,20 32,20 Z M32,41.6 C26.708,41.6 22.4,37.292 22.4,32 C22.4,26.708 26.708,22.4 32,22.4 C37.292,22.4 41.6,26.708 41.6,32 C41.6,37.292 37.292,41.6 32,41.6 Z"
                    id="Shape"></path>
            </g>
        </g>
    </g>
</svg>